<?xml version="1.0" standalone="no"?>
<!DOCTYPE svg PUBLIC "-//W3C//DTD SVG 20010904//EN"
 "http://www.w3.org/TR/2001/REC-SVG-20010904/DTD/svg10.dtd">
<svg version="1.0" xmlns="http://www.w3.org/2000/svg"
 width="632.000000pt" height="632.000000pt" viewBox="0 0 632.000000 632.000000"
 preserveAspectRatio="xMidYMid meet">
<metadata>
Created by potrace 1.11, written by Peter Selinger 2001-2013
</metadata>
<g transform="translate(0.000000,632.000000) scale(0.100000,-0.100000)"
fill="#000000" stroke="none">
<path d="M0 3160 l0 -3160 3160 0 3160 0 0 3160 0 3160 -3160 0 -3160 0 0
-3160z m6250 2556 c0 -2 -8 -10 -17 -17 -16 -13 -17 -12 -4 4 13 16 21 21 21
13z m-115 -96 c-21 -16 -41 -30 -44 -30 -9 1 63 59 73 60 5 0 -8 -13 -29 -30z
m-99 -75 c-48 -45 -124 -102 -96 -72 24 24 135 117 140 117 3 -1 -17 -21 -44
-45z m-126 -100 c-7 -9 -32 -30 -54 -46 -35 -27 -34 -25 9 15 51 47 67 58 45
31z m-140 -116 c-24 -22 -54 -45 -65 -51 -25 -13 -22 -10 45 46 68 56 81 60
20 5z m-124 -104 c-22 -19 -44 -35 -49 -35 -10 0 73 69 83 69 3 0 -13 -15 -34
-34z m-66 -48 c0 -2 -10 -12 -22 -23 l-23 -19 19 23 c18 21 26 27 26 19z
m-121 -110 c-25 -23 -76 -69 -114 -102 -37 -33 -96 -85 -129 -115 -34 -30
-100 -89 -146 -130 -203 -181 -367 -338 -703 -672 -198 -197 -357 -358 -355
-358 2 0 -27 -33 -65 -72 -190 -202 -257 -276 -257 -284 0 -5 -18 -29 -40 -54
-22 -25 -40 -51 -40 -59 0 -8 -3 -11 -7 -8 -6 6 -18 -8 -55 -68 -7 -11 -21
-32 -31 -47 -10 -16 -16 -28 -12 -28 3 0 -5 -15 -19 -33 -15 -19 -26 -41 -26
-50 0 -9 -16 -49 -35 -89 -38 -82 -97 -142 -202 -205 -145 -89 -307 -253 -583
-589 -30 -37 -67 -81 -82 -98 -32 -37 -100 -126 -166 -216 -26 -36 -81 -108
-122 -160 -42 -52 -93 -119 -115 -148 -36 -48 -56 -68 -39 -40 35 58 446 601
650 858 145 183 314 410 315 423 6 150 8 158 33 199 35 59 44 68 100 108 40
27 62 35 110 38 l61 4 166 167 c91 91 253 258 361 371 207 216 668 676 828
825 52 49 124 116 160 150 155 145 589 524 600 525 3 0 -16 -19 -41 -43z
m-3371 -3681 c-13 -19 -24 -33 -26 -31 -5 4 37 65 44 65 2 0 -6 -15 -18 -34z
m-47 -64 c-5 -10 -18 -25 -27 -33 -11 -9 -9 -2 6 19 26 35 36 42 21 14z m-58
-83 c-10 -17 -24 -36 -32 -42 -8 -7 -2 7 14 31 32 49 45 57 18 11z m-63 -89
c-12 -16 -24 -30 -26 -30 -3 0 4 14 16 30 12 17 24 30 26 30 3 0 -4 -13 -16
-30z m-102 -149 c-18 -27 -35 -48 -36 -46 -5 4 57 95 64 95 2 0 -10 -22 -28
-49z"/>
</g>
</svg>
